<?xml version="1.0" encoding="utf-8"?>
<!-- Generator: Adobe Illustrator 16.0.0, SVG Export Plug-In . SVG Version: 6.00 Build 0)  -->
<!DOCTYPE svg PUBLIC "-//W3C//DTD SVG 1.1 Tiny//EN" "http://www.w3.org/Graphics/SVG/1.1/DTD/svg11-tiny.dtd">
<svg version="1.1" baseProfile="tiny" id="Capa_1" xmlns="http://www.w3.org/2000/svg" xmlns:xlink="http://www.w3.org/1999/xlink"
	 x="0px" y="0px" width="595.28px" height="485.517px" viewBox="0 178.187 595.28 485.517" xml:space="preserve">
<g>
	<g id="SVGCleanerId_0">
		<g>
			<path fill="#FBD34A" stroke="#FBD34A" stroke-width="2" stroke-miterlimit="10" d="M400.049,468.211H195.233
				c-4.349,0-7.878,3.521-7.878,7.878v173.307c0,4.356,3.529,7.878,7.878,7.878H400.05c4.356,0,7.878-3.521,7.878-7.878V476.089
				C407.928,471.731,404.406,468.211,400.049,468.211z M392.172,641.519H203.11V483.967h189.062V641.519L392.172,641.519z"/>
		</g>
	</g>
	<g>
		<g>
			<path fill="#FBD34A" stroke="#FBD34A" stroke-width="2" stroke-miterlimit="10" d="M400.049,468.211H195.233
				c-4.349,0-7.878,3.521-7.878,7.878v173.307c0,4.356,3.529,7.878,7.878,7.878H400.05c4.356,0,7.878-3.521,7.878-7.878V476.089
				C407.928,471.731,404.406,468.211,400.049,468.211z M392.172,641.519H203.11V483.967h189.062V641.519L392.172,641.519z"/>
		</g>
	</g>
	<g>
		<g>
			<path fill="#FBD34A" stroke="#FBD34A" stroke-width="2" stroke-miterlimit="10" d="M195.233,468.211H69.19
				c-4.349,0-7.877,3.521-7.877,7.878v173.307c0,4.357,3.528,7.878,7.877,7.878h126.042c4.348,0,7.877-3.521,7.877-7.877V476.089
				C203.11,471.731,199.58,468.211,195.233,468.211z M187.355,641.519H77.068V483.967h110.287V641.519L187.355,641.519z"/>
		</g>
	</g>
	<g>
		<g>
			<path fill="#FBD34A" stroke="#FBD34A" stroke-width="2" stroke-miterlimit="10" d="M526.092,468.211H400.049
				c-4.356,0-7.877,3.521-7.877,7.878v173.307c0,4.356,3.521,7.878,7.877,7.878h126.043c4.355,0,7.876-3.521,7.876-7.878V476.089
				C533.97,471.731,530.449,468.211,526.092,468.211z M518.213,641.519H407.928V483.967h110.287v157.552H518.213z"/>
		</g>
	</g>
	<g>
		<g>
			<path fill="#FBD34A" stroke="#FBD34A" stroke-width="2" stroke-miterlimit="10" d="M368.539,531.232H226.742
				c-4.348,0-7.877,3.521-7.877,7.878v78.775c0,4.356,3.529,7.878,7.877,7.878h141.797c4.356,0,7.877-3.521,7.877-7.878V539.11
				C376.416,534.753,372.896,531.232,368.539,531.232z M360.661,610.009H234.619v-63.021h126.042V610.009L360.661,610.009z"/>
		</g>
	</g>
	<g>
		<g>
			
				<rect x="305.519" y="499.722" fill="#FBD34A" stroke="#FBD34A" stroke-width="2" stroke-miterlimit="10" width="15.754" height="15.755"/>
		</g>
	</g>
	<g>
		<g>
			
				<rect x="274.008" y="499.722" fill="#FBD34A" stroke="#FBD34A" stroke-width="2" stroke-miterlimit="10" width="15.756" height="15.755"/>
		</g>
	</g>
	<g>
		<g>
			
				<rect x="242.497" y="499.722" fill="#FBD34A" stroke="#FBD34A" stroke-width="2" stroke-miterlimit="10" width="15.756" height="15.755"/>
		</g>
	</g>
	<g>
		<g>
			
				<rect x="337.03" y="499.722" fill="#FBD34A" stroke="#FBD34A" stroke-width="2" stroke-miterlimit="10" width="15.756" height="15.755"/>
		</g>
	</g>
	<g>
		<g>
			
				<rect x="69.19" y="531.232" fill="#FBD34A" stroke="#FBD34A" stroke-width="2" stroke-miterlimit="10" width="126.042" height="15.756"/>
		</g>
	</g>
	<g>
		<g>
			
				<rect x="116.455" y="499.722" fill="#FBD34A" stroke="#FBD34A" stroke-width="2" stroke-miterlimit="10" width="31.511" height="15.755"/>
		</g>
	</g>
	<g>
		<g>
			
				<rect x="116.455" y="562.742" fill="#FBD34A" stroke="#FBD34A" stroke-width="2" stroke-miterlimit="10" width="31.511" height="15.756"/>
		</g>
	</g>
	<g>
		<g>
			
				<rect x="400.049" y="531.232" fill="#FBD34A" stroke="#FBD34A" stroke-width="2" stroke-miterlimit="10" width="126.043" height="15.756"/>
		</g>
	</g>
	<g>
		<g>
			
				<rect x="455.194" y="539.11" fill="#FBD34A" stroke="#FBD34A" stroke-width="2" stroke-miterlimit="10" width="15.756" height="110.286"/>
		</g>
	</g>
	<g>
		<g>
			
				<rect x="447.316" y="499.722" fill="#FBD34A" stroke="#FBD34A" stroke-width="2" stroke-miterlimit="10" width="31.511" height="15.755"/>
		</g>
	</g>
	<g>
		<g>
			
				<rect x="423.683" y="578.498" fill="#FBD34A" stroke="#FBD34A" stroke-width="2" stroke-miterlimit="10" width="15.755" height="23.634"/>
		</g>
	</g>
	<g>
		<g>
			
				<rect x="486.704" y="578.498" fill="#FBD34A" stroke="#FBD34A" stroke-width="2" stroke-miterlimit="10" width="15.755" height="23.634"/>
		</g>
	</g>
	<g>
		<g>
			<path fill="#FBD34A" stroke="#FBD34A" stroke-width="2" stroke-miterlimit="10" d="M397.741,312.967l-29.202-29.202v-91.271
				c0-4.348-3.521-7.877-7.878-7.877H234.619c-4.347,0-7.877,3.53-7.877,7.877v91.27l-29.202,29.202
				c-2.254,2.253-2.931,5.641-1.71,8.587c1.222,2.938,4.097,4.86,7.279,4.86h189.062c3.183,0,6.067-1.922,7.279-4.86
				C400.672,318.606,399.994,315.219,397.741,312.967z M222.125,310.658l18.064-18.063c1.481-1.474,2.308-3.482,2.308-5.57v-86.653
				h110.286v86.654c0,2.087,0.828,4.096,2.308,5.569l18.063,18.063L222.125,310.658L222.125,310.658z"/>
		</g>
	</g>
	<g>
		<g>
			<path fill="#FBD34A" stroke="#FBD34A" stroke-width="2" stroke-miterlimit="10" d="M486.704,357.924
				c-17.38,0-31.511,14.132-31.511,31.51v7.877h15.756v-7.877c0-8.688,7.065-15.755,15.755-15.755s15.756,7.065,15.756,15.755
				v86.655h15.757v-86.655C518.213,372.057,504.082,357.924,486.704,357.924z"/>
		</g>
	</g>
	<g>
		<g>
			
				<rect x="486.704" y="436.701" fill="#FBD34A" stroke="#FBD34A" stroke-width="2" stroke-miterlimit="10" width="23.633" height="15.755"/>
		</g>
	</g>
	<g>
		<g>
			<path fill="#FBD34A" stroke="#FBD34A" stroke-width="2" stroke-miterlimit="10" d="M289.764,420.945h-78.776
				c-4.348,0-7.877,3.521-7.877,7.877v47.267c0,4.356,3.529,7.877,7.877,7.877h78.776c4.349,0,7.876-3.521,7.876-7.877v-47.267
				C297.64,424.467,294.113,420.945,289.764,420.945z M281.886,468.211h-63.021v-31.51h63.021V468.211z"/>
		</g>
	</g>
	<g>
		<g>
			
				<rect x="187.355" y="436.701" fill="#FBD34A" stroke="#FBD34A" stroke-width="2" stroke-miterlimit="10" width="23.632" height="15.755"/>
		</g>
	</g>
	<g>
		<g>
			
				<rect x="289.764" y="436.701" fill="#FBD34A" stroke="#FBD34A" stroke-width="2" stroke-miterlimit="10" width="23.633" height="15.755"/>
		</g>
	</g>
	<g>
		<g>
			<path fill="#FBD34A" stroke="#FBD34A" stroke-width="2" stroke-miterlimit="10" d="M195.233,184.616H69.19
				c-4.349,0-7.877,3.53-7.877,7.877v94.531c0,4.348,3.528,7.878,7.877,7.878h126.042c4.348,0,7.877-3.53,7.877-7.878v-94.531
				C203.11,188.146,199.58,184.616,195.233,184.616z M187.355,279.148H77.068v-78.776h110.287V279.148L187.355,279.148z"/>
		</g>
	</g>
	<g>
		<g>
			
				<rect x="155.844" y="231.882" fill="#FBD34A" stroke="#FBD34A" stroke-width="2" stroke-miterlimit="10" width="15.755" height="31.51"/>
		</g>
	</g>
	<g>
		<g>
			<path fill="#FBD34A" stroke="#FBD34A" stroke-width="2" stroke-miterlimit="10" d="M526.092,184.616H400.049
				c-4.356,0-7.877,3.53-7.877,7.877v94.531c0,4.348,3.521,7.878,7.877,7.878h126.043c4.355,0,7.876-3.53,7.876-7.878v-94.531
				C533.97,188.146,530.449,184.616,526.092,184.616z M518.213,279.148H407.928v-78.776h110.287v78.776H518.213z"/>
		</g>
	</g>
	<g>
		<g>
			
				<rect x="423.683" y="231.882" fill="#FBD34A" stroke="#FBD34A" stroke-width="2" stroke-miterlimit="10" width="15.755" height="31.51"/>
		</g>
	</g>
	<g>
		<g>
			
				<rect x="61.313" y="342.169" fill="#FBD34A" stroke="#FBD34A" stroke-width="2" stroke-miterlimit="10" width="141.797" height="15.756"/>
		</g>
	</g>
	<g>
		<g>
			
				<rect x="77.068" y="326.414" fill="#FBD34A" stroke="#FBD34A" stroke-width="2" stroke-miterlimit="10" width="15.756" height="70.899"/>
		</g>
	</g>
	<g>
		<g>
			<path fill="#FBD34A" stroke="#FBD34A" stroke-width="2" stroke-miterlimit="10" d="M84.946,389.435
				c-13.029,0-23.633,10.604-23.633,23.634c0,13.029,10.604,23.633,23.633,23.633s23.632-10.604,23.632-23.633
				C108.577,400.039,97.975,389.435,84.946,389.435z M84.946,420.945c-4.341,0-7.878-3.537-7.878-7.877
				c0-4.341,3.537-7.877,7.878-7.877c4.34,0,7.877,3.537,7.877,7.877C92.823,417.409,89.285,420.945,84.946,420.945z"/>
		</g>
	</g>
	<g>
		<g>
			
				<rect x="108.577" y="326.414" fill="#FBD34A" stroke="#FBD34A" stroke-width="2" stroke-miterlimit="10" width="15.757" height="70.899"/>
		</g>
	</g>
	<g>
		<g>
			<path fill="#FBD34A" stroke="#FBD34A" stroke-width="2" stroke-miterlimit="10" d="M116.455,389.435
				c-13.029,0-23.633,10.604-23.633,23.634c0,13.029,10.604,23.633,23.633,23.633s23.633-10.604,23.633-23.633
				C140.088,400.039,129.485,389.435,116.455,389.435z M116.455,420.945c-4.341,0-7.878-3.537-7.878-7.877
				c0-4.341,3.537-7.877,7.878-7.877s7.878,3.537,7.878,7.877C124.334,417.409,120.796,420.945,116.455,420.945z"/>
		</g>
	</g>
	<g>
		<g>
			
				<rect x="140.088" y="326.414" fill="#FBD34A" stroke="#FBD34A" stroke-width="2" stroke-miterlimit="10" width="15.756" height="70.899"/>
		</g>
	</g>
	<g>
		<g>
			<path fill="#FBD34A" stroke="#FBD34A" stroke-width="2" stroke-miterlimit="10" d="M147.966,389.435
				c-13.028,0-23.632,10.604-23.632,23.634c0,13.029,10.604,23.633,23.632,23.633c13.03,0,23.633-10.604,23.633-23.633
				C171.599,400.039,160.996,389.435,147.966,389.435z M147.966,420.945c-4.34,0-7.877-3.537-7.877-7.877
				c0-4.341,3.537-7.877,7.877-7.877c4.341,0,7.878,3.537,7.878,7.877C155.844,417.409,152.307,420.945,147.966,420.945z"/>
		</g>
	</g>
</g>
</svg>
