<?xml version="1.0" encoding="utf-8"?>
<!-- Generator: Adobe Illustrator 16.0.0, SVG Export Plug-In . SVG Version: 6.00 Build 0)  -->
<!DOCTYPE svg PUBLIC "-//W3C//DTD SVG 1.1//EN" "http://www.w3.org/Graphics/SVG/1.1/DTD/svg11.dtd">
<svg version="1.1" id="Capa_1" xmlns="http://www.w3.org/2000/svg" xmlns:xlink="http://www.w3.org/1999/xlink" x="0px" y="0px"
	 width="595.28px" height="485.517px" viewBox="0 178.187 595.28 485.517" enable-background="new 0 178.187 595.28 485.517"
	 xml:space="preserve">
<g>
	<path fill="#FBD34A" d="M436.172,182.688H159.107c-10.054,0-18.233,8.18-18.233,18.234v440.047c0,10.054,8.18,18.233,18.233,18.233
		h277.065c10.055,0,18.235-8.18,18.235-18.233V200.922C454.407,190.868,446.227,182.688,436.172,182.688z M434.237,202.858v436.174
		H283.278V202.858H434.237z M263.108,202.858v436.174H161.043V202.858H263.108z"/>
	<path fill="#FBD34A" d="M240.597,520.67c5.561,0,10.085-4.524,10.085-10.086V331.306c0-5.561-4.524-10.085-10.085-10.085
		c-5.561,0-10.085,4.524-10.085,10.085v179.278C230.512,516.146,235.036,520.67,240.597,520.67z"/>
	<path fill="#FBD34A" d="M305.79,520.67c5.561,0,10.084-4.524,10.084-10.086V331.306c0-5.561-4.523-10.085-10.084-10.085
		c-5.562,0-10.086,4.524-10.086,10.085v179.278C295.704,516.146,300.229,520.67,305.79,520.67z"/>
	<path fill="#FBD34A" d="M175.405,471.773h40.745c5.562,0,10.086-4.524,10.086-10.084V380.2c0-5.561-4.524-10.085-10.086-10.085
		h-40.745c-5.561,0-10.084,4.524-10.084,10.085v81.49C165.32,467.249,169.844,471.773,175.405,471.773z M185.49,394.562v-4.276
		h20.575v4.276H185.49z M185.49,451.604v-36.873h20.575v36.873H185.49z"/>
</g>
</svg>
