<?xml version="1.0" encoding="utf-8"?>
<!-- Generator: Adobe Illustrator 16.0.0, SVG Export Plug-In . SVG Version: 6.00 Build 0)  -->
<!DOCTYPE svg PUBLIC "-//W3C//DTD SVG 1.1//EN" "http://www.w3.org/Graphics/SVG/1.1/DTD/svg11.dtd">
<svg version="1.1" id="Capa_1" xmlns="http://www.w3.org/2000/svg" xmlns:xlink="http://www.w3.org/1999/xlink" x="0px" y="0px"
	 width="595.28px" height="485.517px" viewBox="0 178.187 595.28 485.517" enable-background="new 0 178.187 595.28 485.517"
	 xml:space="preserve">
<g transform="translate(1 1)">
	<g>
		<g>
			<g>
				<path fill="#FBD34A" d="M453.917,184.03H139.364c-13.007,0-23.591,10.585-23.591,23.592v408.919
					c0,4.348,3.522,7.863,7.863,7.863v15.729c0,8.674,7.053,15.727,15.728,15.727h31.455c8.674,0,15.729-7.053,15.729-15.727
					v-15.729h220.186v15.729c0,8.674,7.054,15.727,15.729,15.727h31.455c8.674,0,15.728-7.053,15.728-15.727v-15.729
					c4.349,0,7.864-3.516,7.864-7.863V207.622C477.509,194.615,466.924,184.03,453.917,184.03z M461.781,608.678h-47.183H178.683
					H131.5v-15.729h330.28V608.678z M131.5,577.223V231.213h185.476l24.543,24.543c4.452,4.458,10.381,6.912,16.68,6.912h103.582
					v314.554H131.5z M339.216,231.213h122.564v15.728H358.198c-2.068,0-4.089-0.842-5.559-2.304L339.216,231.213z M139.364,199.758
					h314.552c4.341,0,7.863,3.53,7.863,7.863v7.864H320.275c-0.029,0-0.057,0-0.085,0H131.5v-7.864
					C131.5,203.289,135.031,199.758,139.364,199.758z M170.82,640.133h-31.456v-15.729h31.455L170.82,640.133L170.82,640.133z
					 M453.917,640.133h-31.455v-15.729h31.455V640.133z"/>
				<path fill="#FBD34A" d="M453.916,658.359h-31.455c-10.051,0-18.229-8.177-18.229-18.227v-13.229H189.047v13.229
					c0,10.05-8.177,18.227-18.229,18.227h-31.455c-10.051,0-18.228-8.177-18.228-18.227V626.6c-4.51-1.122-7.863-5.206-7.863-10.059
					V207.622c0-14.387,11.705-26.092,26.091-26.092h314.553c6.959,0,13.508,2.717,18.441,7.651s7.649,11.483,7.649,18.441v408.919
					c0,4.853-3.353,8.938-7.864,10.059v13.533C472.144,650.183,463.967,658.359,453.916,658.359z M184.047,621.904h225.186v18.229
					c0,7.293,5.935,13.227,13.229,13.227h31.455c7.294,0,13.228-5.934,13.228-13.227v-18.229h2.5c2.958,0,5.364-2.406,5.364-5.363
					V207.622c0-5.623-2.196-10.917-6.186-14.906s-9.282-6.186-14.905-6.186H139.364c-11.63,0-21.091,9.462-21.091,21.092v408.919
					c0,2.957,2.406,5.363,5.363,5.363h2.5v18.229c0,7.293,5.934,13.227,13.228,13.227h31.455c7.294,0,13.229-5.934,13.229-13.227
					V621.904z M456.417,642.633h-36.455v-20.729h36.455V642.633z M424.962,637.633h26.455v-10.729h-26.455V637.633z
					 M173.319,642.633h-36.455v-20.729h36.455V642.633z M141.864,637.633h26.455v-10.729h-26.455V637.633z M464.281,611.178H129
					v-20.729h335.28V611.178z M134,606.178h325.28v-10.729H134V606.178z M464.281,579.723H129V228.713h189.011l25.275,25.276
					c3.98,3.985,9.276,6.18,14.912,6.18h106.082V579.723z M134,574.723h325.28V265.169H358.198c-6.973,0-13.524-2.715-18.448-7.646
					l-23.81-23.81H134V574.723z M464.281,249.441H358.198c-2.717,0-5.385-1.105-7.321-3.031l-17.696-17.696h131.1V249.441z
					 M345.251,233.713l9.156,9.156c1.003,0.997,2.386,1.571,3.791,1.571h101.082v-10.728H345.251z M464.28,217.985H129v-10.364
					c0-5.714,4.649-10.363,10.364-10.363h314.552c5.714,0,10.363,4.649,10.363,10.363V217.985z M134,212.985H459.28v-5.364
					c0-2.958-2.406-5.363-5.363-5.363H139.364c-2.958,0-5.364,2.406-5.364,5.363V212.985z"/>
			</g>
			<g>
				<path fill="#FBD34A" d="M155.092,246.941c-4.34,0-7.863,3.523-7.863,7.864v7.863c0,4.341,3.523,7.864,7.863,7.864
					c4.341,0,7.864-3.523,7.864-7.864v-7.863C162.955,250.464,159.432,246.941,155.092,246.941z"/>
				<path fill="#FBD34A" d="M155.092,273.032c-5.714,0-10.363-4.649-10.363-10.364v-7.863c0-5.714,4.649-10.364,10.363-10.364
					s10.364,4.649,10.364,10.364v7.863C165.455,268.382,160.806,273.032,155.092,273.032z M155.092,249.441
					c-2.958,0-5.363,2.406-5.363,5.364v7.863c0,2.958,2.406,5.364,5.363,5.364s5.364-2.406,5.364-5.364v-7.863
					C160.455,251.847,158.049,249.441,155.092,249.441z"/>
			</g>
			<g>
				<path fill="#FBD34A" d="M186.547,246.941c-4.341,0-7.863,3.523-7.863,7.864v7.863c0,4.341,3.522,7.864,7.863,7.864
					c4.34,0,7.864-3.523,7.864-7.864v-7.863C194.411,250.464,190.888,246.941,186.547,246.941z"/>
				<path fill="#FBD34A" d="M186.547,273.032c-5.714,0-10.363-4.649-10.363-10.364v-7.863c0-5.714,4.649-10.364,10.363-10.364
					c2.767,0,5.37,1.079,7.328,3.037s3.037,4.561,3.036,7.328v7.863C196.911,268.382,192.261,273.032,186.547,273.032z
					 M186.547,249.441c-2.958,0-5.363,2.406-5.363,5.364v7.863c0,2.958,2.406,5.364,5.363,5.364s5.364-2.406,5.364-5.364v-7.863
					c0-1.432-0.558-2.778-1.572-3.792C189.325,249.999,187.979,249.441,186.547,249.441z"/>
			</g>
		</g>
	</g>
</g>
<g>
	<g>
		<path fill="#FBD34A" stroke="#FBD34A" stroke-width="8" stroke-miterlimit="10" d="M343.743,322.518h-23.048
			c0,12.712-10.346,23.051-23.055,23.051c-12.708,0-23.047-10.339-23.047-23.051h-23.051l-64.541,36.881l18.442,50.711l27.66-9.222
			v106.034h129.082V400.889l27.66,9.222l18.436-50.711L343.743,322.518z M384.24,398.525l-19.146-6.382l-12.135-4.048v12.793v96.81
			H242.321v-96.81v-12.793l-12.135,4.048l-19.145,6.382l-12.72-34.977l55.668-31.81h12.719
			c3.968,13.331,16.315,23.051,30.932,23.051c14.62,0,26.964-9.721,30.929-23.051h12.723l55.67,31.81L384.24,398.525z"/>
	</g>
</g>
</svg>
