<?xml version="1.0" encoding="utf-8"?>
<!-- Generator: Adobe Illustrator 16.0.0, SVG Export Plug-In . SVG Version: 6.00 Build 0)  -->
<!DOCTYPE svg PUBLIC "-//W3C//DTD SVG 1.1 Tiny//EN" "http://www.w3.org/Graphics/SVG/1.1/DTD/svg11-tiny.dtd">
<svg version="1.1" baseProfile="tiny" id="Capa_1" xmlns="http://www.w3.org/2000/svg" xmlns:xlink="http://www.w3.org/1999/xlink"
	 x="0px" y="0px" width="595.28px" height="485.517px" viewBox="0 178.187 595.28 485.517" xml:space="preserve">
<g>
	<g>
		<g>
			<path fill="#FBD34A" d="M538.656,561.272h-22.09c-4.735,0-8.573,3.837-8.573,8.573c0,4.733,3.838,8.572,8.573,8.572h22.09
				c4.735,0,8.574-3.838,8.574-8.572C547.231,565.109,543.392,561.272,538.656,561.272z"/>
		</g>
	</g>
	<g>
		<g>
			<path fill="#FBD34A" d="M578.04,531.545v-28.221c0-7.878-6.409-14.287-14.287-14.287h-72.28c-7.879,0-14.288,6.409-14.288,14.287
				c0,0-0.034,13.835,0,14.244c-3.262-6.78-10.123-11.484-18.136-11.484h-20.493v-59.869c0-11.028-8.973-20.003-20.001-20.003
				H143.774c-11.028,0-20.002,8.975-20.002,20.003v59.869h-20.494c-11.138,0-20.199,9.065-20.199,20.206v84.017H68.622V406.486
				h32.159c7.878,0,14.287-6.409,14.287-14.288v-32.976c0-4.735-3.837-8.572-8.572-8.572s-8.573,3.837-8.573,8.572v30.118H22.177
				v-98.032h75.746v25.624c0,4.735,3.838,8.572,8.573,8.572s8.572-3.837,8.572-8.572V288.45c0-7.878-6.409-14.287-14.287-14.287
				H19.321c-7.88,0-14.288,6.409-14.288,14.287v103.748c0,7.878,6.408,14.288,14.288,14.288h32.157v203.821H28.03
				c-7.879,0-14.287,6.409-14.287,14.288v15.496c0,7.878,6.408,14.287,14.287,14.287l108.965-0.083
				c7.933,0,14.387-6.455,14.387-14.39v-14.904h189.693c4.735,0,8.571-3.837,8.571-8.572s-3.836-8.572-8.571-8.572H151.381v-41.661
				h259.566v41.661h-24.153c-4.737,0-8.573,3.837-8.573,8.572s3.836,8.572,8.573,8.572h24.153v14.904
				c0,7.935,6.453,14.39,14.385,14.39h64.224c7.878,0,14.288-6.41,14.288-14.287v-15.156h47.535v15.156
				c0,7.877,6.41,14.287,14.288,14.287h10.294c7.878,0,14.287-6.41,14.287-14.287v-23.729v-25.614v-44.912
				C590.246,538.56,584.939,532.602,578.04,531.545z M83.078,637.231H30.887v-9.781h52.191V637.231z M134.236,637.148h-34.012
				V526.29c0-1.658,1.398-3.061,3.054-3.061h27.903c1.656,0,3.055,1.402,3.055,3.061V637.148L134.236,637.148z M231.898,549.05
				H186.26v-45.195h45.638V549.05z M380.719,549.05H335.08v-45.195h45.639V549.05z M421.409,508.595
				c-6.23,3.445-10.462,10.083-10.462,17.694v22.759h-13.084v-48.052c0-7.878-6.409-14.287-14.287-14.287h-51.354
				c-7.88,0-14.287,6.409-14.287,14.287v48.054h-28.2v-49.238c0-4.736-3.838-8.573-8.572-8.573c-4.735,0-8.572,3.837-8.572,8.573
				v49.238h-23.548v-48.054c0-7.878-6.409-14.287-14.287-14.287h-51.354c-7.878,0-14.287,6.409-14.287,14.287v48.054h-17.735v-22.76
				c0-7.611-4.231-14.248-10.464-17.692v-62.382c0-1.549,1.309-2.857,2.857-2.857h128.816v18.733c0,4.736,3.838,8.572,8.572,8.572
				c4.735,0,8.573-3.836,8.573-8.572v-18.734h128.818c1.549,0,2.856,1.309,2.856,2.857V508.595L421.409,508.595z M462.105,637.148
				h-34.013V526.29c0-1.658,1.399-3.061,3.055-3.061h27.902c1.655,0,3.056,1.402,3.056,3.061V637.148z M494.329,506.183h66.566
				v4.957h-66.566V506.183z M494.329,528.286h66.566v3.075h-66.566V528.286z M486.699,637.148h-4.58v-12.298h4.58V637.148z
				 M573.102,637.148h-4.577v-12.298h4.577V637.148z M573.102,607.707h-90.982v-7.104h90.982V607.707z M573.102,583.458h-90.982
				v-34.951h90.982V583.458z"/>
		</g>
	</g>
	<g>
		<g>
			<path fill="#FBD34A" d="M409.605,213.852H152.722c-8.068,0-14.631,6.566-14.631,14.636v141.864
				c0,8.07,6.562,14.636,14.631,14.636h256.883c8.068,0,14.632-6.565,14.632-14.636V228.487
				C424.237,220.417,417.673,213.852,409.605,213.852z M407.092,367.843H155.236V230.997h251.856V367.843z"/>
		</g>
	</g>
	<g>
		<g>
			<path fill="#FBD34A" d="M502.306,394.82c-12.621-3.973-13.783-5.148-17.73-17.978c-1.519-4.905-5.979-8.202-11.099-8.202
				c-5.132,0-9.595,3.308-11.096,8.215c-3.944,12.813-5.104,13.989-17.734,17.965c-4.865,1.534-8.134,6-8.134,11.115
				c0,5.116,3.269,9.583,8.134,11.117c12.631,3.979,13.79,5.156,17.729,17.945c1.502,4.926,5.964,8.234,11.102,8.234
				c5.125,0,9.586-3.298,11.101-8.212c3.945-12.813,5.107-13.989,17.729-17.967c4.865-1.532,8.135-6,8.135-11.118
				C510.441,400.819,507.171,396.354,502.306,394.82z M473.479,416.786c-2.707-4.804-6.023-8.125-10.821-10.847
				c4.796-2.723,8.112-6.044,10.821-10.849c2.71,4.804,6.025,8.126,10.82,10.849C479.504,408.66,476.189,411.982,473.479,416.786z"
				/>
		</g>
	</g>
	<g>
		<g>
			<path fill="#FBD34A" d="M547.021,269.121c-14.265-4.494-15.779-6.026-20.241-20.516c-1.56-5.044-6.145-8.434-11.407-8.434
				c-5.28,0-9.868,3.401-11.406,8.445c-4.454,14.477-5.969,16.01-20.239,20.503c-5.004,1.575-8.366,6.168-8.366,11.432
				c0,5.264,3.362,9.858,8.362,11.431c14.272,4.499,15.787,6.03,20.234,20.477c1.541,5.069,6.129,8.474,11.415,8.474
				c5.269,0,9.855-3.395,11.411-8.445c4.46-14.478,5.973-16.011,20.235-20.505c5.004-1.574,8.366-6.167,8.366-11.432
				C555.385,275.287,552.023,270.694,547.021,269.121z M515.376,294.445c-3.305-6.49-7.376-10.566-13.857-13.894
				c6.479-3.324,10.551-7.403,13.857-13.894c3.304,6.492,7.373,10.569,13.854,13.894
				C522.751,283.877,518.68,287.956,515.376,294.445z"/>
		</g>
	</g>
	<g>
		<g>
			<path fill="#FBD34A" d="M117.341,209.244c-9.948-3.133-10.59-3.784-13.705-13.908c-1.449-4.68-5.707-7.824-10.593-7.824
				c-4.899,0-9.159,3.153-10.597,7.84c-3.109,10.107-3.75,10.755-13.699,13.888c-4.647,1.461-7.771,5.725-7.771,10.61
				c0,4.888,3.123,9.152,7.764,10.611c9.955,3.136,10.595,3.786,13.701,13.879c1.438,4.697,5.698,7.854,10.601,7.854
				c4.889,0,9.147-3.147,10.598-7.839c3.113-10.11,3.753-10.759,13.693-13.891c4.648-1.459,7.772-5.725,7.772-10.612
				C125.106,214.965,121.983,210.702,117.341,209.244z M93.044,226.052c-1.702-2.494-3.695-4.489-6.188-6.197
				c2.493-1.708,4.485-3.705,6.188-6.198c1.702,2.493,3.694,4.489,6.186,6.197C96.739,221.56,94.744,223.557,93.044,226.052z"/>
		</g>
	</g>
	<g>
		<g>
			<path fill="#FBD34A" d="M391.431,238.104H170.897c-4.734,0-8.572,3.836-8.572,8.572v105.485c0,4.736,3.838,8.572,8.572,8.572
				h220.532c4.735,0,8.573-3.836,8.573-8.572V246.677C400.002,241.94,396.164,238.104,391.431,238.104z M192.502,343.59
				l23.951-36.626l23.95,36.626H192.502z M260.89,343.589L260.89,343.589l-10.033-15.342l29.896-45.716l39.927,61.058H260.89z
				 M289.801,265.045c-2.073-3.17-5.457-5.063-9.05-5.063s-6.977,1.891-9.052,5.064l-31.086,47.538l-15.11-23.107
				c-2.074-3.17-5.457-5.064-9.051-5.064s-6.977,1.893-9.052,5.066l-27.933,42.714v-76.943h203.388v76.94l-27.169-41.546
				c-2.074-3.173-5.457-5.068-9.054-5.068c-3.594,0-6.979,1.894-9.051,5.065l-15.521,23.738L289.801,265.045z M341.163,343.588
				L341.163,343.588l-8.859-13.548l14.329-21.916l23.191,35.463H341.163z"/>
		</g>
	</g>
</g>
</svg>
