<?xml version="1.0" encoding="utf-8"?>
<!-- Generator: Adobe Illustrator 16.0.0, SVG Export Plug-In . SVG Version: 6.00 Build 0)  -->
<!DOCTYPE svg PUBLIC "-//W3C//DTD SVG 1.1//EN" "http://www.w3.org/Graphics/SVG/1.1/DTD/svg11.dtd">
<svg version="1.1" id="Capa_1" xmlns="http://www.w3.org/2000/svg" xmlns:xlink="http://www.w3.org/1999/xlink" x="0px" y="0px"
	 width="595.28px" height="485.517px" viewBox="0 178.187 595.28 485.517" enable-background="new 0 178.187 595.28 485.517"
	 xml:space="preserve">
<g>
	<g>
		<path fill="#FBD34A" d="M413.574,325.875H75.81c-20.728,0-37.529,16.802-37.529,37.529v225.177
			c0,20.728,16.802,37.53,37.529,37.53h337.765c20.728,0,37.529-16.803,37.529-37.53V363.404
			C451.104,342.677,434.302,325.875,413.574,325.875z M432.84,588.581c-0.034,10.626-8.64,19.231-19.266,19.266H75.81
			c-10.626-0.034-19.231-8.64-19.266-19.266V363.404c0.034-10.625,8.64-19.23,19.266-19.265h337.765
			c10.626,0.034,19.231,8.639,19.266,19.265V588.581z"/>
	</g>
</g>
<g>
	<g>
		<path fill="#FBD34A" d="M550.307,287.97h-0.062h-245.13l65.051-95.638c2.815-4.128,1.752-9.757-2.377-12.572
			c-4.128-2.815-9.757-1.751-12.572,2.377L286.35,283.342l-72.057-64.926c-4.001-3.012-9.688-2.209-12.7,1.793
			c-2.65,3.521-2.385,8.439,0.628,11.655l62.55,56.294H44.973C20.164,288.227,0.069,308.322,0,333.131v285.6
			c0.068,24.809,20.164,44.903,44.973,44.973h505.334c24.809-0.069,44.904-20.164,44.974-44.973V332.943
			C595.211,308.135,575.117,288.039,550.307,287.97z M577.141,618.73c-0.034,14.84-12.057,26.861-26.896,26.896H44.973
			c-14.84-0.034-26.861-12.056-26.896-26.896V332.943c0.035-14.84,12.057-26.862,26.896-26.896h505.334
			c14.84,0.035,26.862,12.057,26.896,26.896L577.141,618.73z"/>
	</g>
</g>
<g>
	<g>
		<path fill="#FBD34A" d="M538.173,361.903l-0.501-0.5c-14.107-14.128-36.999-14.146-51.129-0.036
			c-0.013,0.012-0.025,0.025-0.036,0.036c-14.128,14.108-14.146,37-0.036,51.129c0.013,0.013,0.025,0.025,0.036,0.036
			c14.618,13.651,37.536,12.868,51.188-1.75C550.506,397.102,550.714,375.869,538.173,361.903z M525.162,399.809
			c-7.084,7.078-18.562,7.078-25.646,0c-6.541-7.589-5.691-19.042,1.897-25.583c6.805-5.867,16.88-5.867,23.686,0l0.375,0.375
			c6.568,7.106,6.404,18.114-0.375,25.02L525.162,399.809z"/>
	</g>
</g>
<g>
	<g>
		<path fill="#FBD34A" d="M531.292,452.662c-5.09-5.096-12-7.955-19.202-7.943c-14.993,0.008-27.141,12.169-27.133,27.16
			c0.008,14.993,12.169,27.14,27.16,27.132c14.993-0.008,27.141-12.169,27.133-27.16
			C539.247,464.653,536.384,457.751,531.292,452.662z M518.47,478.245l-0.125,0.062c-3.526,3.558-9.269,3.582-12.826,0.056
			c-3.558-3.525-3.582-9.268-0.057-12.825c3.526-3.558,9.269-3.583,12.826-0.057c1.75,1.734,2.72,4.108,2.684,6.571
			C520.962,474.36,520.067,476.578,518.47,478.245z"/>
	</g>
</g>
</svg>
