<?xml version="1.0" encoding="utf-8"?>
<!-- Generator: Adobe Illustrator 16.0.0, SVG Export Plug-In . SVG Version: 6.00 Build 0)  -->
<!DOCTYPE svg PUBLIC "-//W3C//DTD SVG 1.1 Tiny//EN" "http://www.w3.org/Graphics/SVG/1.1/DTD/svg11-tiny.dtd">
<svg version="1.1" baseProfile="tiny" id="Capa_1" xmlns="http://www.w3.org/2000/svg" xmlns:xlink="http://www.w3.org/1999/xlink"
	 x="0px" y="0px" width="595.28px" height="485.517px" viewBox="0 178.187 595.28 485.517" xml:space="preserve">
<g>
	<g>
		<path fill="#FBD34A" stroke="#FBD34A" stroke-width="6" stroke-miterlimit="10" d="M376.481,594.493h-55.188V482.061
			c81.692-13.063,137.329-89.877,124.266-171.569c-13.062-81.692-89.876-137.329-171.569-124.266
			c-81.692,13.062-137.328,89.877-124.266,171.569c10.221,63.921,60.345,114.044,124.266,124.266v112.433h-55.188
			c-30.462,0.04-55.148,24.728-55.188,55.19c0,4.353,3.53,7.883,7.884,7.883h252.289c4.353,0,7.884-3.53,7.884-7.883
			C431.63,619.22,406.944,594.532,376.481,594.493z M163.612,334.322c-0.062-74.022,59.896-134.079,133.917-134.141
			c74.021-0.062,134.078,59.895,134.14,133.916c0.054,64.94-46.454,120.578-110.377,132.036v-73.321l20.5,34.169
			c3.749,6.241,10.177,10.394,17.407,11.25c0.965,0.117,1.936,0.174,2.909,0.174c6.262,0.008,12.269-2.486,16.683-6.931
			l16.005-16.004c9.246-9.226,9.262-24.202,0.035-33.449c-1.363-1.368-2.891-2.562-4.546-3.559l-54.936-33.008
			c2.239-7.275,2.239-15.054,0-22.328l54.968-32.956c11.187-6.744,14.788-21.28,8.045-32.467c-0.995-1.649-2.188-3.172-3.552-4.532
			l-15.965-16.036c-9.227-9.248-24.202-9.263-33.449-0.037c-1.368,1.364-2.562,2.892-3.559,4.546l-33.025,54.967
			c-7.287-2.081-15.01-2.081-22.297,0l-33.026-54.983c-6.744-11.188-21.279-14.788-32.467-8.045
			c-1.65,0.995-3.171,2.188-4.533,3.552l-16.004,16.004c-9.247,9.227-9.264,24.203-0.037,33.449
			c1.364,1.367,2.891,2.562,4.546,3.559l54.936,33.01c-2.239,7.277-2.239,15.06,0,22.336l-54.983,32.979
			c-11.187,6.743-14.788,21.28-8.045,32.467c0.995,1.649,2.187,3.172,3.551,4.532l16.005,16.003
			c4.414,4.444,10.419,6.938,16.682,6.93c0.973,0.001,1.943-0.057,2.909-0.173c7.239-0.843,13.679-4.992,17.439-11.235
			l20.499-34.184v73.32C210.177,454.643,163.718,399.16,163.612,334.322z M327.308,360.173c0.213-0.244,0.489-0.441,0.702-0.693
			l54.18,32.544c3.736,2.286,4.914,7.167,2.627,10.905c-0.321,0.526-0.704,1.012-1.138,1.449l-16.005,16.005
			c-3.108,3.087-8.129,3.07-11.216-0.038c-0.432-0.434-0.812-0.916-1.131-1.437l-32.544-54.218c0.299-0.268,0.527-0.583,0.812-0.835
			v0.023C324.913,362.728,326.154,361.49,327.308,360.173z M328.001,309.187c-0.308-0.362-0.693-0.654-1.017-1.009
			c-1.011-1.137-2.088-2.213-3.225-3.224c-0.348-0.316-0.631-0.694-0.994-0.994l32.555-54.187c2.286-3.737,7.166-4.914,10.903-2.629
			c0.527,0.322,1.013,0.704,1.45,1.138l16.005,16.004c3.087,3.108,3.068,8.13-0.041,11.217c-0.437,0.435-0.924,0.816-1.448,1.138
			L328.001,309.187z M297.64,468.35c-2.665,0-5.258-0.245-7.884-0.402v-94.994c0.252,0.047,0.528,0,0.789,0.07
			c4.682,0.955,9.508,0.955,14.191,0c0.26-0.046,0.527,0,0.787-0.078v95.001C302.9,468.104,300.306,468.35,297.64,468.35z
			 M305.524,483.715v110.778h-15.767V483.715c2.625,0.143,5.219,0.403,7.884,0.403C300.306,484.118,302.9,483.857,305.524,483.715z
			 M292.043,357.272c-1.814-0.426-3.567-1.077-5.219-1.939l-1.001-0.568c-10.945-6.303-14.982-20.107-9.161-31.315
			c6.008-11.591,20.272-16.122,31.867-10.124h-0.017c4.336,2.28,7.874,5.829,10.14,10.171c3.534,6.815,3.521,14.926-0.039,21.729
			c-1,1.926-2.268,3.699-3.77,5.266c-0.07,0.079-0.142,0.166-0.22,0.245c-1.492,1.512-3.176,2.821-5.007,3.895
			c-0.205,0.126-0.371,0.268-0.584,0.386c-0.071,0-0.322,0.173-0.56,0.315C303.375,357.826,297.581,358.509,292.043,357.272z
			 M271.497,304.978v0.023c-1.138,1.011-2.213,2.087-3.225,3.224c-0.315,0.347-0.693,0.631-0.993,0.985l-54.187-32.544
			c-3.737-2.286-4.914-7.168-2.628-10.905c0.322-0.526,0.704-1.012,1.138-1.45l16.004-16.005c1.477-1.476,3.479-2.307,5.567-2.309
			c0.327-0.003,0.653,0.018,0.977,0.063c2.407,0.275,4.549,1.649,5.803,3.721l32.553,54.203
			C272.144,304.268,271.852,304.654,271.497,304.978z M272.49,364.675l-32.529,54.195c-1.252,2.079-3.399,3.458-5.811,3.737
			c-2.413,0.321-4.836-0.511-6.543-2.246l-16.004-16.005c-3.086-3.108-3.07-8.129,0.039-11.217c0.433-0.43,0.916-0.81,1.436-1.129
			l54.195-32.553c0.213,0.252,0.488,0.449,0.702,0.702c1.15,1.312,2.386,2.547,3.697,3.698
			C271.962,364.108,272.191,364.431,272.49,364.675L272.49,364.675z M180.169,641.799c3.77-18.344,19.905-31.516,38.632-31.537
			h157.68c18.727,0.021,34.862,13.193,38.632,31.537H180.169z"/>
	</g>
</g>
</svg>
